HIERARCHY
ROOT Hips
{
	OFFSET 52.457600 -11.356916 100.652000
	CHANNELS 6 Xposition Yposition Zposition Xrotation Yrotation Zrotation
	JOINT spine
	{
		OFFSET 0.000000 -0.507026 8.817039
		CHANNELS 3 Xrotation Yrotation Zrotation
		JOINT spine1
		{
			OFFSET 0.000000 -0.000002 10.776596
			CHANNELS 3 Xrotation Yrotation Zrotation
			JOINT spine2
			{
				OFFSET 0.000000 -0.000001 10.325897
				CHANNELS 3 Xrotation Yrotation Zrotation
				JOINT Neck
				{
					OFFSET 0.000000 -1.263955 26.511002
					CHANNELS 3 Xrotation Yrotation Zrotation
					JOINT Head
					{
						OFFSET 0.000000 -0.000001 8.009659
						CHANNELS 3 Xrotation Yrotation Zrotation
						End Site
						{
							OFFSET 0.000000 6.393857 19.387894
						}
					}
				}
				JOINT RightShoulder
				{
					OFFSET -4.347950 0.605420 11.151199
					CHANNELS 3 Xrotation Yrotation Zrotation
					JOINT RightArm
					{
						OFFSET 0.000000 -0.000003 14.625793
						CHANNELS 3 Xrotation Yrotation Zrotation
						JOINT RightArmRoll
						{
							OFFSET 0.000000 -0.000001 7.383408
							CHANNELS 3 Xrotation Yrotation Zrotation
							JOINT RightForeArm
							{
								OFFSET 0.000000 -0.000004 21.505203
								CHANNELS 3 Xrotation Yrotation Zrotation
								JOINT RightForeArmRoll
								{
									OFFSET 0.000000 -0.000001 8.285324
									CHANNELS 3 Xrotation Yrotation Zrotation
									JOINT RightHand
									{
										OFFSET 0.000000 -0.000003 16.626801
										CHANNELS 3 Xrotation Yrotation Zrotation
										End Site
										{
											OFFSET 0.000000 0.000000 0.100006
										}
									}
								}
							}
						}
					}
				}
				JOINT LeftShoulder
				{
					OFFSET 4.347950 0.605420 11.151199
					CHANNELS 3 Xrotation Yrotation Zrotation
					JOINT LeftArm
					{
						OFFSET 0.000000 -0.000003 14.625793
						CHANNELS 3 Xrotation Yrotation Zrotation
						JOINT LeftArmRoll
						{
							OFFSET 0.000000 -0.000001 7.383408
							CHANNELS 3 Xrotation Yrotation Zrotation
							JOINT LeftForeArm
							{
								OFFSET 0.000000 -0.000004 21.505203
								CHANNELS 3 Xrotation Yrotation Zrotation
								JOINT LeftForeArmRoll
								{
									OFFSET 0.000000 -0.000001 8.285324
									CHANNELS 3 Xrotation Yrotation Zrotation
									JOINT LeftHand
									{
										OFFSET 0.000000 -0.000003 16.626801
										CHANNELS 3 Xrotation Yrotation Zrotation
										End Site
										{
											OFFSET 0.000000 0.000000 0.100006
										}
									}
								}
							}
						}
					}
				}
			}
		}
	}
	JOINT RightUpLeg
	{
		OFFSET -7.815102 1.202170 -1.433090
		CHANNELS 3 Xrotation Yrotation Zrotation
		JOINT RightUpLegRoll
		{
			OFFSET 0.000000 -0.000003 19.495903
			CHANNELS 3 Xrotation Yrotation Zrotation
			JOINT RightLeg
			{
				OFFSET 0.000000 0.000004 -24.142700
				CHANNELS 3 Xrotation Yrotation Zrotation
				JOINT RightLegRoll
				{
					OFFSET 0.000000 -0.000004 24.221703
					CHANNELS 3 Xrotation Yrotation Zrotation
					JOINT RightFoot
					{
						OFFSET 0.000000 -0.000004 20.160500
						CHANNELS 3 Xrotation Yrotation Zrotation
						JOINT RightToeBase
						{
							OFFSET 0.000000 -0.000003 16.853195
							CHANNELS 3 Xrotation Yrotation Zrotation
							End Site
							{
								OFFSET 0.007145 0.940779 8.161865
							}
						}
					}
				}
			}
		}
	}
	JOINT LeftUpLeg
	{
		OFFSET 7.815102 1.202170 -1.433090
		CHANNELS 3 Xrotation Yrotation Zrotation
		JOINT LeftUpLegRoll
		{
			OFFSET 0.000000 -0.000003 19.496002
			CHANNELS 3 Xrotation Yrotation Zrotation
			JOINT LeftLeg
			{
				OFFSET 0.000000 -0.000004 24.142601
				CHANNELS 3 Xrotation Yrotation Zrotation
				JOINT LeftLegRoll
				{
					OFFSET 0.000000 -0.000005 24.445602
					CHANNELS 3 Xrotation Yrotation Zrotation
					JOINT LeftFoot
					{
						OFFSET 0.000000 -0.000003 19.936600
						CHANNELS 3 Xrotation Yrotation Zrotation
						JOINT LeftToeBase
						{
							OFFSET 0.000000 -0.000003 16.853195
							CHANNELS 3 Xrotation Yrotation Zrotation
							End Site
							{
								OFFSET -0.032013 0.940780 8.161865
							}
						}
					}
				}
			}
		}
	}
}
MOTION
Frames: 4
Frame Time: 0.041667
52.966599 -12.074317 100.568993 -2.618654 0.709410 3.886995 -1.999635 -0.218950 -0.081582 0.003222 -0.432558 -0.168551 1.648327 -0.434004 -0.163406 27.998083 2.983464 0.566494 7.547459 2.541816 0.474985 -5.403071 -67.079629 -7.112494 -44.134148 -111.650589 -30.635082 0.000002 -0.000000 0.000001 3.231497 -15.221090 0.287078 -0.000001 0.000002 -3.000000 -5.000241 -7.998793 0.000172 -9.287938 62.172623 11.190739 -39.316406 113.264187 32.422727 0.000001 -0.000001 0.000000 5.605148 12.077193 -0.144929 -0.000002 -0.000003 3.000002 -5.000229 7.998702 -0.000175 2.040475 -179.544295 -0.988694 -179.999991 0.000006 -1.094997 174.830945 -1.226988 -0.413982 -0.000003 0.000000 0.033406 68.469061 6.895146 2.162844 25.535443 -7.355450 0.119128 0.059869 176.313001 1.779241 -0.000005 -0.000004 -1.122510 -9.049984 2.106264 0.517374 -0.000003 -0.000005 -0.168592 70.544858 -6.865307 -2.091879 25.647726 7.354692 -0.281477 
52.956406 -12.157422 100.573982 -2.625209 0.707501 3.896689 -1.996605 -0.217138 -0.083159 0.009294 -0.427845 -0.171633 1.654396 -0.429373 -0.166544 27.965236 2.976655 0.570941 7.563670 2.549443 0.476104 -5.406918 -67.103371 -7.118771 -44.135682 -111.635480 -30.616784 0.000001 -0.000001 -0.000001 3.321398 -15.195318 0.293865 0.000001 0.000002 -3.000001 -5.000241 -7.998791 0.000172 -9.327510 62.106869 11.232670 -39.255580 113.347829 32.413844 0.000002 0.000000 0.000001 5.639245 12.093828 -0.149575 -0.000004 -0.000004 3.000002 -5.000227 7.998703 -0.000175 2.042830 -179.531304 -0.966925 -179.999991 0.000006 -1.094998 174.826751 -1.253876 -0.414512 -0.000003 0.000000 0.033406 68.468965 6.895137 2.162748 25.529794 -7.355464 0.110540 0.069135 176.314995 1.782007 -0.000005 -0.000005 -1.122510 -9.045827 2.101943 0.517370 -0.000002 -0.000005 -0.168592 70.544017 -6.865331 -2.091735 25.647623 7.354697 -0.281774 
52.966396 -12.137718 100.571983 -2.631796 0.705585 3.906592 -1.993454 -0.215268 -0.084768 0.015590 -0.422964 -0.174778 1.660685 -0.424587 -0.169747 27.931333 2.967782 0.575771 7.581019 2.558451 0.477069 -5.411507 -67.128096 -7.125959 -44.138496 -111.622093 -30.604216 0.000002 -0.000001 -0.000001 3.408350 -15.173556 0.300395 0.000000 0.000003 -3.000001 -5.000238 -7.998794 0.000172 -9.368684 62.036655 11.276177 -39.188579 113.435543 32.399774 0.000002 -0.000001 0.000001 5.674059 12.110347 -0.154281 -0.000000 -0.000004 3.000000 -5.000227 7.998703 -0.000176 2.045094 -179.516318 -0.944388 -179.999991 0.000006 -1.094998 174.822558 -1.281744 -0.414124 -0.000003 0.000000 0.033406 68.468965 6.895138 2.162647 25.523934 -7.355468 0.101633 0.078544 176.317003 1.784875 -0.000005 -0.000004 -1.122510 -9.041638 2.097493 0.517366 -0.000002 -0.000005 -0.168592 70.543375 -6.865325 -2.091773 25.647417 7.354701 -0.282054 
52.961399 -12.079420 100.566994 -2.638407 0.703666 3.916625 -1.990222 -0.213358 -0.086400 0.022043 -0.417967 -0.177967 1.667144 -0.419691 -0.172995 27.896591 2.957448 0.580871 7.599167 2.568434 0.477924 -5.416621 -67.153600 -7.133810 -44.145265 -111.608727 -30.598981 -0.000002 -0.000001 -0.000002 3.493240 -15.154494 0.306735 0.000001 0.000002 -3.000002 -5.000243 -7.998791 0.000172 -9.410848 61.963128 11.320641 -39.117798 113.525619 32.382716 -0.000001 0.000000 0.000001 5.709362 12.126745 -0.159032 -0.000003 -0.000004 3.000000 -5.000227 7.998702 -0.000175 2.047299 -179.502316 -0.921401 -179.999991 0.000006 -1.094998 174.818268 -1.309625 -0.414753 -0.000004 0.000000 0.033406 68.468958 6.895139 2.162549 25.517870 -7.355481 0.092501 0.088054 176.319011 1.787817 -0.000005 -0.000004 -1.122510 -9.037418 2.092955 0.517366 -0.000002 -0.000005 -0.168592 70.542727 -6.865316 -2.091812 25.647321 7.354698 -0.282348 
